<svg width="368" height="311" viewBox="0 0 368 311" fill="none" xmlns="http://www.w3.org/2000/svg">
<path d="M238.144 40.4243C259.463 58.7389 276.682 78.9669 302.101 104.389C327.247 129.81 360.592 160.426 366.878 194.048C373.165 227.943 352.392 264.846 320.414 279.88C288.162 294.914 244.704 287.534 210.539 285.894C176.373 283.98 151.228 287.534 111.323 296.828C71.1446 306.122 15.6603 320.883 3.08752 301.475C-9.75858 282.067 20.3068 228.217 41.3525 192.681C62.3983 157.145 74.9711 139.651 77.9776 112.042C81.2575 84.4339 75.5177 46.4381 88.3638 24.57C101.483 2.70184 133.462 -3.31189 162.161 1.60843C191.133 6.52876 216.825 22.3831 238.144 40.4243Z" fill="#F6F1FF"/>
</svg>
