<svg width="20" height="20" viewBox="0 0 20 20" fill="none" xmlns="http://www.w3.org/2000/svg">
<g clip-path="url(#clip0_14_322)">
<path d="M4.93856 11.8966L4.30568 14.2593L1.9925 14.3082C1.3012 13.026 0.909088 11.559 0.909088 10C0.909088 8.49254 1.27571 7.07095 1.92557 5.81921H1.92606L3.98544 6.19677L4.88757 8.24379C4.69876 8.79425 4.59584 9.38516 4.59584 10C4.59591 10.6674 4.71679 11.3067 4.93856 11.8966Z" fill="#FBBB00"/>
<path d="M18.9321 8.30167C19.0365 8.8516 19.0909 9.41953 19.0909 9.99996C19.0909 10.6508 19.0225 11.2857 18.8921 11.8981C18.4496 13.982 17.2932 15.8017 15.6913 17.0894L15.6908 17.0889L13.0969 16.9565L12.7298 14.6648C13.7928 14.0414 14.6234 13.0659 15.061 11.8981H10.1999V8.30167H15.1319H18.9321Z" fill="#518EF8"/>
<path d="M15.6908 17.0889L15.6913 17.0894C14.1334 18.3417 12.1543 19.0909 10 19.0909C6.53797 19.0909 3.52799 17.1559 1.99252 14.3082L4.93857 11.8966C5.70629 13.9456 7.68282 15.4041 10 15.4041C10.996 15.4041 11.9291 15.1349 12.7298 14.6649L15.6908 17.0889Z" fill="#28B446"/>
<path d="M15.8027 3.00199L12.8577 5.41307C12.029 4.8951 11.0495 4.59588 10 4.59588C7.63039 4.59588 5.6169 6.12134 4.88764 8.24375L1.9261 5.81917H1.9256C3.4386 2.90209 6.48654 0.909088 10 0.909088C12.2058 0.909088 14.2283 1.69481 15.8027 3.00199Z" fill="#F14336"/>
</g>
<defs>
<clipPath id="clip0_14_322">
<rect width="20" height="20" fill="white"/>
</clipPath>
</defs>
</svg>
