<svg width="21" height="55" viewBox="0 0 21 55" fill="none" xmlns="http://www.w3.org/2000/svg">
<mask id="mask0_23_1414" style="mask-type:luminance" maskUnits="userSpaceOnUse" x="0" y="0" width="21" height="55">
<path d="M0 1.16711L20.2052 0.989304L20.675 54.3729L0.469789 54.5507L0 1.16711Z" fill="white"/>
</mask>
<g mask="url(#mask0_23_1414)">
<path d="M15.6138 35.6684L16.111 6.13972C16.1573 3.3903 13.9653 1.1242 11.2155 1.07793C8.46551 1.03166 6.19864 3.22286 6.15236 5.97209L5.65538 35.4982C4.79218 35.9651 4.00023 36.5649 3.27993 37.2978C1.3969 39.2139 0.431874 41.6024 0.384855 44.4633C0.395737 45.3952 0.523864 46.2888 0.769236 47.144L1.21315 48.3862C1.5636 49.191 2.00714 49.9338 2.5434 50.6143C4.21746 52.7193 6.43675 53.978 9.20146 54.3907C12.0972 54.6776 14.6051 53.985 16.7253 52.3126C18.8309 50.6391 20.0898 48.4204 20.5025 45.6562L20.5827 44.2855C20.4854 41.4259 19.4785 39.0548 17.562 37.1721C16.9593 36.5803 16.3099 36.0789 15.6138 35.6684Z" fill="#FEE3E4"/>
</g>
<path d="M14.6981 6.42439L14.1814 38.8522C14.1497 40.8435 12.5093 42.4321 10.5174 42.4004C8.52553 42.3687 6.93657 40.7287 6.96826 38.7374L7.4849 6.30958C7.51659 4.31825 9.157 2.72947 11.1489 2.76135C13.1408 2.79304 14.7298 4.43306 14.6981 6.42439Z" fill="#DEB9BB"/>
<path d="M7.29776 17.9905C9.70323 17.9693 12.1085 17.9481 14.5138 17.927L14.2111 36.9387C14.9889 37.3214 15.7018 37.8306 16.3493 38.4666C17.9339 40.0234 18.7664 41.9838 18.8469 44.3483L18.7807 45.4818C18.4394 47.7673 17.3983 49.6019 15.6573 50.9857C13.9042 52.3686 11.8306 52.9413 9.43631 52.7038C7.15022 52.3628 5.31509 51.322 3.9311 49.5814C3.48742 49.0186 3.12084 48.4046 2.83099 47.739L2.46403 46.712C2.26113 46.0048 2.15524 45.2658 2.14616 44.4953C2.18509 42.1297 2.98313 40.155 4.54008 38.5706C5.27025 37.8276 6.08958 37.2499 6.99751 36.8377L7.29776 17.9906L7.29776 17.9905Z" fill="#E33137"/>
<path d="M9.35497 6.36149L9.01805 34.883C9.01473 35.158 8.78916 35.3781 8.51413 35.375C8.23911 35.3716 8.01881 35.1463 8.02214 34.8712L8.35905 6.34977C8.36238 6.07474 8.58795 5.85463 8.86297 5.85777C9.138 5.86109 9.35829 6.08666 9.35497 6.36149Z" fill="#464647"/>
<path d="M8.85537 7.83569L10.9193 7.84779C11.1943 7.84939 11.4159 8.0738 11.4141 8.34862C11.4125 8.62363 11.1883 8.84525 10.9133 8.84365L8.84938 8.83137C8.57437 8.82977 8.35274 8.60555 8.35435 8.33054C8.35595 8.05553 8.58016 7.8341 8.85537 7.83569Z" fill="#464647"/>
<path d="M8.95504 12.2668L11.019 12.2789C11.294 12.2807 11.5156 12.5048 11.514 12.7798C11.5124 13.0548 11.288 13.2764 11.013 13.2748L8.94905 13.2625C8.67404 13.2609 8.45242 13.0367 8.45402 12.7619C8.45562 12.4867 8.68002 12.2652 8.95504 12.2668Z" fill="#464647"/>
<path d="M8.87612 17.0942L10.94 17.1063C11.2151 17.1079 11.4367 17.3321 11.4351 17.6072C11.4333 17.8822 11.2091 18.1038 10.9341 18.1022L8.87013 18.0899C8.59512 18.0883 8.37349 17.8639 8.3751 17.5891C8.3767 17.3141 8.60111 17.0926 8.87612 17.0942Z" fill="#464647"/>
<path d="M9.25862 22.2865L11.3226 22.2986C11.5976 22.3002 11.8192 22.5244 11.8176 22.7994C11.816 23.0744 11.5916 23.2961 11.3168 23.2943L9.25264 23.2822C8.97763 23.2806 8.756 23.0562 8.75761 22.7813C8.7594 22.5063 8.98361 22.2849 9.25862 22.2865Z" fill="#464647"/>
<path d="M9.27571 28.214L11.3396 28.2261C11.6147 28.2279 11.8363 28.4521 11.8347 28.7269C11.8331 29.0021 11.6087 29.2236 11.3337 29.2219L9.26973 29.2097C8.99472 29.2081 8.77309 28.9838 8.7747 28.7088C8.7763 28.434 9.0007 28.2124 9.27571 28.214Z" fill="#464647"/>
</svg>
